<svg width="24" height="24" viewBox="0 0 24 24" fill="none" xmlns="http://www.w3.org/2000/svg">
<path d="M18.6675 8.40949C15.9295 5.55221 13.2894 7.72919 12.3116 8.91972C11.3167 7.73083 8.14152 5.60094 5.3558 8.45428C1.87366 12.0209 5.85325 19.1543 8.83795 20.6829C10.3303 21.4472 12.3116 20.6543 12.3116 20.1448C12.3116 20.655 13.7783 21.4203 15.245 20.655C18.1785 19.1243 22.0899 11.9811 18.6675 8.40949Z" stroke="#333333" stroke-width="2" stroke-linecap="round" stroke-linejoin="round"/>
<path d="M18.6675 8.40949C15.9295 5.55221 13.2894 7.72919 12.3116 8.91972C11.3167 7.73083 8.14152 5.60094 5.3558 8.45428C1.87366 12.0209 5.85325 19.1543 8.83795 20.6829C10.3303 21.4472 12.3116 20.6543 12.3116 20.1448C12.3116 20.655 13.7783 21.4203 15.245 20.655C18.1785 19.1243 22.0899 11.9811 18.6675 8.40949Z" stroke="#333333" stroke-width="2" stroke-linecap="round" stroke-linejoin="round"/>
<path d="M12.7395 5.27826L14.5178 3.50002" stroke="#333333" stroke-width="2" stroke-linecap="round" stroke-linejoin="round"/>
</svg>
