<svg width="24" height="24" viewBox="0 0 24 24" fill="none" xmlns="http://www.w3.org/2000/svg">
<path d="M5 8V17.75C5 19.5449 6.38674 21 8.09738 21H14.2921C16.0028 21 17.3895 19.5449 17.3895 17.75M17.3895 8V11.25M17.3895 8C17.3895 6.89543 16.1046 6 15 6C15 4.89543 14.1046 4 13 4C11.8954 4 11 4.89543 11 6V5C11 3.89543 10.1046 3 9 3C7.89543 3 7 3.89543 7 5C5.89543 5 5 5.89543 5 7V8.5H8V10.5C8 11.3284 8.67157 12 9.5 12C10.3284 12 11 11.3284 11 10.5V9H17.3895V8ZM17.3895 11.25V17.75M17.3895 11.25C20.8858 11.7595 20.8545 17.0431 17.3895 17.75" stroke="#333333" stroke-width="2" stroke-linecap="round" stroke-linejoin="round"/>
<line x1="13" y1="13" x2="13" y2="17" stroke="#333333" stroke-width="2" stroke-linecap="round" stroke-linejoin="round"/>
<line x1="9" y1="15" x2="9" y2="17" stroke="#333333" stroke-width="2" stroke-linecap="round" stroke-linejoin="round"/>
</svg>
