<svg width="24" height="24" viewBox="0 0 24 24" fill="none" xmlns="http://www.w3.org/2000/svg">
<path d="M9.6 15.1397C12 15.1397 11.1467 15.1397 12 15.1397C12.8533 15.1397 12 15.1397 14.4 15.1397M9.6 15.1397C7.48091 14.1624 6 11.9304 6 9.33333C6 5.83553 8.68629 3 12 3C15.3137 3 18 5.83553 18 9.33333C18 11.9304 16.5191 14.1624 14.4 15.1397M9.6 15.1397V17.5C9.6 18.0523 10.0477 18.5 10.6 18.5H13.4C13.9523 18.5 14.4 18.0523 14.4 17.5V15.1397M13 21H11M11 11H13" stroke="#333333" stroke-width="2" stroke-linecap="round" stroke-linejoin="round"/>
</svg>
