<svg width="24" height="24" viewBox="0 0 24 24" fill="none" xmlns="http://www.w3.org/2000/svg">
<path d="M16.1422 7.69357L17.4655 5.28702C17.8409 4.60432 18.8182 4.59413 19.2078 5.26885L22.0113 10.1247C22.3831 10.7686 21.9472 11.5785 21.205 11.6229L18.358 11.7933M7.9625 17.7952L6.39145 20.1756C5.98193 20.7961 5.06255 20.7686 4.69082 20.1247L1.88727 15.2688C1.49772 14.5941 1.99522 13.7528 2.77415 13.7691L5.51993 13.8264M6.53159 8.97636C6.38908 9.18621 6.25808 9.40576 6.13973 9.63433C5.92758 10.0441 5.75607 10.4828 5.63174 10.9468C5.5247 11.3463 5.4573 11.7471 5.42714 12.1449C5.19545 15.2006 7.15987 18.0856 10.2279 18.9077C11.7878 19.3257 13.3673 19.1392 14.7177 18.4918M6.53159 8.97636L14.7177 18.4918M6.53159 8.97636C7.14323 8.07567 7.9669 7.35344 8.91276 6.86154M14.7177 18.4918C15.7337 18.0046 16.62 17.2566 17.2706 16.3088M8.91276 6.86154C10.3037 6.13817 11.9589 5.91289 13.5926 6.35065C17.0601 7.27977 19.1179 10.844 18.1888 14.3115C18.0817 14.711 17.9397 15.0917 17.7669 15.4513C17.6223 15.7524 17.456 16.0387 17.2706 16.3088M8.91276 6.86154L17.2706 16.3088" stroke="#333333" stroke-width="2" stroke-linecap="round" stroke-linejoin="round"/>
</svg>
