<svg width="24" height="24" viewBox="0 0 24 24" fill="none" xmlns="http://www.w3.org/2000/svg">
<path d="M9 6.5C9 9.5 9 9 6.5 9C5.11929 9 4 7.88071 4 6.5C4 5.11929 5.11929 4 6.5 4C7.88071 4 9 5.11929 9 6.5Z" stroke="#333333" stroke-width="2" stroke-linecap="round" stroke-linejoin="round"/>
<path d="M20 6.5C20 7.88071 18.8807 9 17.5 9C15 9 15 9 15 6.5C15 5.11929 16.1193 4 17.5 4C18.8807 4 20 5.11929 20 6.5Z" stroke="#333333" stroke-width="2" stroke-linecap="round" stroke-linejoin="round"/>
<path d="M9 17.5312C9 14.5312 9 15.0312 6.5 15.0312C5.11929 15.0312 4 16.1505 4 17.5312C4 18.912 5.11929 20.0312 6.5 20.0312C7.88071 20.0312 9 18.912 9 17.5312Z" stroke="#333333" stroke-width="2" stroke-linecap="round" stroke-linejoin="round"/>
<path d="M20 17.5312C20 16.1505 18.8807 15.0312 17.5 15.0312C15 15.0312 15 15.0312 15 17.5312C15 18.912 16.1193 20.0312 17.5 20.0312C18.8807 20.0312 20 18.912 20 17.5312Z" stroke="#333333" stroke-width="2" stroke-linecap="round" stroke-linejoin="round"/>
<line x1="9" y1="7" x2="9" y2="17" stroke="#333333" stroke-width="2" stroke-linecap="round" stroke-linejoin="round"/>
<line x1="7" y1="15" x2="17" y2="15" stroke="#333333" stroke-width="2" stroke-linecap="round" stroke-linejoin="round"/>
<line x1="15" y1="7" x2="15" y2="17" stroke="#333333" stroke-width="2" stroke-linecap="round" stroke-linejoin="round"/>
<line x1="7" y1="9" x2="17" y2="9" stroke="#333333" stroke-width="2" stroke-linecap="round" stroke-linejoin="round"/>
</svg>
