<svg width="24" height="24" viewBox="0 0 24 24" fill="none" xmlns="http://www.w3.org/2000/svg">
<path d="M16 20H18C19.1046 20 20 19.1046 20 18V16M8 4H6C4.89543 4 4 4.89543 4 6V8M8 20H6C4.89543 20 4 19.1046 4 18V16M16 4H18C19.1046 4 20 4.89543 20 6V8M12.5 9V11.0585C12.5 11.9193 11.9491 12.6836 11.1325 12.9558L11 13M8 9V10.5M16 9V10.5M15 16L14.6833 16.1584C12.9941 17.0029 11.0059 17.0029 9.31672 16.1584L9 16" stroke="#333333" stroke-width="2" stroke-linecap="round" stroke-linejoin="round"/>
</svg>
