<svg width="24" height="24" viewBox="0 0 24 24" fill="none" xmlns="http://www.w3.org/2000/svg">
<path d="M15.1586 22C15.334 20.0952 15.5792 16.6662 14.6321 15.8095C13.5793 16.2857 25.1608 14.381 19.37 5.33333C19.721 4.69841 19.8965 3.42857 19.37 2C17.7908 1.9999 16.2115 2.47629 15.1586 3.42857C14.8076 3.26988 13.6846 2.95248 12 2.95248" stroke="#333333" stroke-width="2" stroke-linecap="round" stroke-linejoin="round"/>
<path d="M9.15591 22C9.10069 21.3343 9.0378 20.4823 9.01576 19.619M12 2.95248C10.4831 2.95248 9.4719 3.26988 9.15588 3.42857C8.20785 2.47629 6.78579 1.9999 5.36376 2C4.88971 3.42857 5.04776 4.69841 5.36376 5.33333C0.149524 14.381 10.5779 16.2857 9.62993 15.8095C9.13002 16.3117 8.99903 17.6979 9.00805 19.1429M9.00805 19.1429C7.46206 18.8254 4.89608 17.5238 3 16C5.84412 18.381 4.3701 19.619 9.01576 19.619M9.00805 19.1429C9.00904 19.3012 9.01171 19.4603 9.01576 19.619" stroke="#333333" stroke-width="2" stroke-linecap="round" stroke-linejoin="round"/>
</svg>
