<svg width="24" height="24" viewBox="0 0 24 24" fill="none" xmlns="http://www.w3.org/2000/svg">
<rect x="3" y="2.99997" width="18" height="18" rx="9" stroke="#333333" stroke-width="2" stroke-linecap="round" stroke-linejoin="round"/>
<path d="M12 20.0645C9.03656 18.5918 7 15.5337 7 12C7 8.46628 9.03656 5.40822 12 3.93552" stroke="#333333" stroke-width="2" stroke-linecap="round" stroke-linejoin="round"/>
<path d="M12 20.0645C9.03656 18.5918 7 15.5337 7 12C7 8.46628 9.03656 5.40822 12 3.93552" stroke="#333333" stroke-width="2" stroke-linecap="round" stroke-linejoin="round"/>
<path d="M12 20.0645C14.9634 18.5918 17 15.5337 17 12C17 8.46628 14.9634 5.40822 12 3.93552" stroke="#333333" stroke-width="2" stroke-linecap="round" stroke-linejoin="round"/>
<path d="M12 20.0645C14.9634 18.5918 17 15.5337 17 12C17 8.46628 14.9634 5.40822 12 3.93552" stroke="#333333" stroke-width="2" stroke-linecap="round" stroke-linejoin="round"/>
<path d="M12 3.99997L12 20" stroke="#333333" stroke-width="2" stroke-linecap="round" stroke-linejoin="round"/>
<path d="M20 12L4 12" stroke="#333333" stroke-width="2" stroke-linecap="round" stroke-linejoin="round"/>
</svg>
