<svg width="24" height="24" viewBox="0 0 24 24" fill="none" xmlns="http://www.w3.org/2000/svg">
<path d="M11 18H13M7 6.5V7.39445C7 7.7893 7.11688 8.17531 7.3359 8.50385L9.20039 11.3006C9.67791 12.0169 9.64351 12.9583 9.11499 13.6379L6.9213 16.4583C6.64824 16.8094 6.5 17.2415 6.5 17.6862V18.7929C6.5 19.2456 6.67986 19.6799 7 20C7.32014 20.3201 7.75435 20.5 8.20711 20.5H15.7929C16.2456 20.5 16.6799 20.3201 17 20C17.3201 19.6799 17.5 19.2456 17.5 18.7929V17.6862C17.5 17.2415 17.3518 16.8094 17.0787 16.4583L14.885 13.6379C14.3565 12.9583 14.3221 12.0169 14.7996 11.3006L16.6641 8.50385C16.8831 8.17531 17 7.7893 17 7.39445V6.5C17 5.39543 16.1046 4.5 15 4.5H9C7.89543 4.5 7 5.39543 7 6.5Z" stroke="#333333" stroke-width="2" stroke-linecap="round" stroke-linejoin="round"/>
</svg>
