<svg width="24" height="24" viewBox="0 0 24 24" fill="none" xmlns="http://www.w3.org/2000/svg">
<path d="M7.9282 15.4641L3.56561 8.85666C3.2341 8.35458 3.29107 7.69049 3.70324 7.25219V7.25219C4.1159 6.81338 4.77622 6.71611 5.29789 7.01729L8.8905 9.09149L10.6788 5.99401C11.3072 4.90564 12.7718 4.65968 13.7213 5.48308L19.2329 10.2631C19.5949 10.5771 19.6833 11.1036 19.4438 11.5186L14.8564 19.4641L7.9282 15.4641Z" stroke="#333333" stroke-width="2" stroke-linecap="round" stroke-linejoin="round"/>
<path d="M6.79423 19.4282C6.31594 19.1521 6.15207 18.5405 6.42821 18.0622L7.92821 15.4641L14.8564 19.4641L13.3564 22.0622C13.0803 22.5405 12.4687 22.7044 11.9904 22.4282L6.79423 19.4282Z" stroke="#333333" stroke-width="2" stroke-linecap="round" stroke-linejoin="round"/>
</svg>
