<svg width="24" height="24" viewBox="0 0 24 24" fill="none" xmlns="http://www.w3.org/2000/svg">
<path d="M10.5 17.5L10.5 22.5" stroke="#333333" stroke-width="1.9091" stroke-linecap="round" stroke-linejoin="round"/>
<path d="M13 20.5L8 20.5" stroke="#333333" stroke-width="2" stroke-linecap="round" stroke-linejoin="round"/>
<path d="M16.4091 11.5C16.4091 13.0732 15.7761 14.4966 14.7487 15.5327C14.3645 15.9201 13.9256 16.2528 13.4448 16.5182C12.6265 16.9699 11.6856 17.2273 10.6818 17.2273C7.51874 17.2273 4.95455 14.6631 4.95455 11.5C4.95455 8.33692 7.51874 5.77272 10.6818 5.77272C13.8449 5.77272 16.4091 8.33692 16.4091 11.5Z" stroke="#333333" stroke-width="1.9091"/>
<path d="M15.4205 7.20453L19.9207 2.70434" stroke="#333333" stroke-width="1.9091" stroke-linecap="round" stroke-linejoin="round"/>
<path d="M19.9208 6.01135L19.9208 2.70435" stroke="#333333" stroke-width="1.9091" stroke-linecap="round" stroke-linejoin="round"/>
<path d="M16.5798 2.67046L19.9207 2.67047" stroke="#333333" stroke-width="1.9091" stroke-linecap="round" stroke-linejoin="round"/>
</svg>
