<svg width="24" height="24" viewBox="0 0 24 24" fill="none" xmlns="http://www.w3.org/2000/svg">
<path d="M9 17C9 13.6863 11.6863 11 15 11C18.3137 11 21 13.6863 21 17C21 19.2208 19.7934 20.9626 18 22" stroke="#333333" stroke-width="2" stroke-linecap="round" stroke-linejoin="round"/>
<path d="M8.30379 15.5C7.77702 15.1826 7.15983 15 6.5 15C4.567 15 3 16.567 3 18.5C3 20.433 4.567 22 6.5 22H18" stroke="#333333" stroke-width="2" stroke-linecap="round" stroke-linejoin="round"/>
<path d="M8 11C8 8.79086 9.79086 7 12 7C13.0144 7 13.9407 7.37764 14.6458 8" stroke="#333333" stroke-width="2" stroke-linecap="round" stroke-linejoin="round"/>
<line x1="12" y1="4" x2="12" y2="2" stroke="#333333" stroke-width="2" stroke-linecap="round" stroke-linejoin="round"/>
<line x1="12" y1="4" x2="12" y2="2" stroke="#333333" stroke-width="2" stroke-linecap="round" stroke-linejoin="round"/>
<line x1="5" y1="11" x2="3" y2="11" stroke="#333333" stroke-width="2" stroke-linecap="round" stroke-linejoin="round"/>
<line x1="19.071" y1="4.34317" x2="17.6568" y2="5.75738" stroke="#333333" stroke-width="2" stroke-linecap="round" stroke-linejoin="round"/>
<line x1="5.41421" y1="5" x2="6.82843" y2="6.41421" stroke="#333333" stroke-width="2" stroke-linecap="round" stroke-linejoin="round"/>
</svg>
