<svg width="24" height="24" viewBox="0 0 24 24" fill="none" xmlns="http://www.w3.org/2000/svg">
<path d="M7.17881 7.28005L7.85161 4.73834C7.97546 4.27049 8.41694 3.9571 8.89855 4.00478C17.1179 4.81855 19.6025 7.46215 20.476 14.6259C20.5331 15.0938 20.2453 15.5337 19.7969 15.6788L13.5742 17.692M7.17881 7.28005C10.16 7.5212 13.5656 7.93007 15.0656 9.93007M7.17881 7.28005L5.03789 15.3679M12.7638 17.9542C11.9354 17.9542 11.2638 17.2826 11.2638 16.4542C11.2638 15.6257 11.9608 14.9135 12.7893 14.9135C13.6177 14.9135 14.2892 15.5851 14.2892 16.4135C14.2892 16.9542 14.0032 17.428 13.5742 17.692M4.84119 16.111C4.84119 16.9395 5.51277 17.611 6.34119 17.611C7.16962 17.611 7.84119 16.9395 7.84119 16.111C7.84119 15.2826 7.16962 14.611 6.34119 14.611C5.78313 14.611 5.29625 14.9158 5.03789 15.3679M5.03789 15.3679L4.03446 19.1587C3.83197 19.9237 4.55609 20.6096 5.30899 20.366L13.5742 17.692M11.0656 11.4301C11.0656 12.2585 10.394 12.9301 9.56557 12.9301C8.73714 12.9301 8.06557 12.2585 8.06557 11.4301C8.06557 10.6016 8.73714 9.93007 9.56557 9.93007C10.394 9.93007 11.0656 10.6016 11.0656 11.4301Z" stroke="#333333" stroke-width="2" stroke-linecap="round" stroke-linejoin="round"/>
</svg>
