<svg width="24" height="24" viewBox="0 0 24 24" fill="none" xmlns="http://www.w3.org/2000/svg">
<circle cx="12" cy="12" r="2" stroke="#333333" stroke-width="2" stroke-linecap="round" stroke-linejoin="round"/>
<path d="M9.25127 7.82266C7.895 8.71691 7 10.2539 7 12C7 13.746 7.895 15.2831 9.25127 16.1773M14.7487 7.82266C16.105 8.71691 17 10.2539 17 12C17 13.746 16.105 15.2831 14.7487 16.1773" stroke="#333333" stroke-width="2" stroke-linecap="round" stroke-linejoin="round"/>
<path d="M7.10215 5.6741C5.21479 7.13752 4 9.4269 4 12C4 14.5628 5.20503 16.8441 7.07938 18.3082M16.9029 5.67799C18.7874 7.14158 20 9.42918 20 12C20 14.5739 18.7845 16.8638 16.8962 18.3272" stroke="#333333" stroke-width="2" stroke-linecap="round" stroke-linejoin="round"/>
</svg>
