<svg width="24" height="24" viewBox="0 0 24 24" fill="none" xmlns="http://www.w3.org/2000/svg">
<path d="M11.5672 9.91603L3.68064 17.8026C2.65578 18.8275 2.45813 20.2915 3.23918 21.0725C4.02023 21.8535 5.48421 21.6559 6.50906 20.631L14.3956 12.7445" stroke="#333333" stroke-width="2" stroke-linecap="round" stroke-linejoin="round"/>
<path d="M18.1588 3.32443L15.2376 6.24562C14.9168 6.56645 15.5113 7.23834 16.2923 8.01938C17.0734 8.80043 17.7452 9.39487 18.0661 9.07404L20.9873 6.15285" stroke="#333333" stroke-width="2" stroke-linecap="round" stroke-linejoin="round"/>
<path d="M18.1474 3.33589C17.6014 3.13128 17.0102 3.01938 16.3928 3.01938C13.6314 3.01938 11.3928 5.25796 11.3928 8.01938C11.3928 8.63676 11.5047 9.22801 11.7093 9.77394M21.0763 6.26483C21.2809 6.81076 21.3928 7.40201 21.3928 8.01938C21.3928 10.7808 19.1542 13.0194 16.3928 13.0194C15.7754 13.0194 15.1842 12.9075 14.6382 12.7029" stroke="#333333" stroke-width="2" stroke-linecap="round" stroke-linejoin="round"/>
</svg>
