<svg width="24" height="24" viewBox="0 0 24 24" fill="none" xmlns="http://www.w3.org/2000/svg">
<path d="M17.872 11.5C17.872 13.0732 17.239 14.4966 16.2116 15.5327C15.8274 15.9201 15.3885 16.2528 14.9077 16.5182C14.0894 16.9699 13.1486 17.2273 12.1447 17.2273C8.98165 17.2273 6.41745 14.6631 6.41745 11.5C6.41745 8.33692 8.98165 5.77272 12.1447 5.77272C15.3078 5.77272 17.872 8.33692 17.872 11.5Z" stroke="#333333" stroke-width="1.9091"/>
<path d="M12.1448 17.2272L12.1448 22" stroke="#333333" stroke-width="1.9091" stroke-linecap="round" stroke-linejoin="round"/>
<path d="M14.5311 20.0909L9.75837 20.0909" stroke="#333333" stroke-width="1.9091" stroke-linecap="round" stroke-linejoin="round"/>
<path d="M8.32655 4.37488L5.01956 7.68183" stroke="#333333" stroke-width="1.9091" stroke-linecap="round" stroke-linejoin="round"/>
<path d="M16.2016 7.20453L20.7018 2.70433" stroke="#333333" stroke-width="1.9091" stroke-linecap="round" stroke-linejoin="round"/>
<path d="M7.84927 7.2984L3.34908 2.79821" stroke="#333333" stroke-width="1.9091" stroke-linecap="round" stroke-linejoin="round"/>
<path d="M20.7018 6.01135L20.7018 2.70435" stroke="#333333" stroke-width="1.9091" stroke-linecap="round" stroke-linejoin="round"/>
<path d="M6.6561 2.79816L3.34909 2.79816" stroke="#333333" stroke-width="1.9091" stroke-linecap="round" stroke-linejoin="round"/>
<path d="M17.3608 2.67046L20.7018 2.67047" stroke="#333333" stroke-width="1.9091" stroke-linecap="round" stroke-linejoin="round"/>
<path d="M3.31519 6.13913L3.3152 2.79822" stroke="#333333" stroke-width="1.9091" stroke-linecap="round" stroke-linejoin="round"/>
</svg>
