<svg width="24" height="24" viewBox="0 0 24 24" fill="none" xmlns="http://www.w3.org/2000/svg">
<path d="M21.0254 5.70559C20.7987 5.51003 20.5218 5.39682 20.3141 5.32589C20.0833 5.24708 19.8184 5.18189 19.5383 5.12629C18.9764 5.01478 18.2727 4.92629 17.4908 4.85709C15.9221 4.71827 13.955 4.65003 12 4.65002C10.045 4.65002 8.0779 4.71826 6.50923 4.85708C5.7273 4.92628 5.02357 5.01478 4.46174 5.12629C4.18161 5.18189 3.91672 5.24708 3.68594 5.32588C3.4782 5.39682 3.20126 5.51003 2.97462 5.70558C2.76112 5.88981 2.63916 6.1182 2.56971 6.27164C2.49263 6.44194 2.43333 6.62756 2.38581 6.809C2.29052 7.17288 2.21854 7.61445 2.16365 8.08721C2.05319 9.03861 2 10.2242 2 11.4033C2 12.5831 2.05326 13.7859 2.16311 14.7727C2.21784 15.2643 2.28883 15.723 2.38053 16.107C2.46043 16.4417 2.59126 16.8855 2.85131 17.2061C3.08981 17.5 3.43086 17.6352 3.60561 17.6982C3.82965 17.779 4.09015 17.8429 4.36115 17.896C4.90739 18.003 5.60964 18.0873 6.39637 18.1531C7.97657 18.2851 9.99449 18.35 12 18.35C14.0055 18.35 16.0234 18.2851 17.6036 18.1531C18.3904 18.0873 19.0926 18.003 19.6388 17.896C19.9098 17.8429 20.1703 17.779 20.3944 17.6982C20.5691 17.6352 20.9102 17.5 21.1487 17.2061C21.4087 16.8855 21.5396 16.4417 21.6195 16.1071C21.7112 15.723 21.7822 15.2643 21.8369 14.7727C21.9467 13.7859 22 12.5831 22 11.4033C22 10.2242 21.9468 9.03862 21.8363 8.08722C21.7815 7.61445 21.7095 7.17289 21.6142 6.809C21.5667 6.62757 21.5074 6.44194 21.4303 6.27164C21.3608 6.1182 21.2389 5.88981 21.0254 5.70559Z" stroke="#333333" stroke-width="2" stroke-linecap="round" stroke-linejoin="round"/>
<rect x="7.5" y="8.34998" width="3" height="6.3" stroke="#333333" stroke-width="2" stroke-linecap="round" stroke-linejoin="round"/>
<rect x="13.5" y="8.34998" width="3" height="6.3" stroke="#333333" stroke-width="2" stroke-linecap="round" stroke-linejoin="round"/>
</svg>
