<svg width="24" height="24" viewBox="0 0 24 24" fill="none" xmlns="http://www.w3.org/2000/svg">
<path d="M19 15L17.9167 21H7.08333L5.98599 15M19 15C20.3807 15 21.5 13.8807 21.5 12.5C21.5 11.9371 21.314 11.4176 21 10.9998M19 15H13C13 16.3807 11.8807 17.5 10.5 17.5C9.11929 17.5 8 16.3807 8 15H5.98599M5.98599 15L5.5 14C4.11929 14 3 12.8807 3 11.5C3 10.1193 4.11929 9 5.5 9C5.66629 9 5.82878 9.01624 5.98599 9.04721L6 8C6 5.79086 7.79086 4 10 4C12.009 4 13.672 5.48102 13.9569 7.41081M13.9569 7.41081C14.6899 6.58038 15.8053 6 17 6C19.2091 6 21 7.79086 21 10V10.9998M13.9569 7.41081C13.9853 7.60309 14 7.79983 14 8M19 10C19.8178 10 20.5439 10.3927 21 10.9998" stroke="#333333" stroke-width="2" stroke-linecap="round" stroke-linejoin="round"/>
<circle cx="10.5" cy="8.5" r="1.5" stroke="#333333" stroke-width="2" stroke-linecap="round" stroke-linejoin="round"/>
</svg>
