<svg width="24" height="24" viewBox="0 0 24 24" fill="none" xmlns="http://www.w3.org/2000/svg">
<path d="M10 15C10 11.6863 12.6863 9 16 9C19.3137 9 22 11.6863 22 15C22 17.2208 20.7934 18.9626 19 20" stroke="#333333" stroke-width="2" stroke-linecap="round" stroke-linejoin="round"/>
<path d="M9.30379 13.5C8.77702 13.1826 8.15983 13 7.5 13C5.567 13 4 14.567 4 16.5C4 18.433 5.567 20 7.5 20H19" stroke="#333333" stroke-width="2" stroke-linecap="round" stroke-linejoin="round"/>
<path d="M8 10C8 6.68629 10.6863 4 14 4C16.0075 4 17.7848 4.98593 18.874 6.5" stroke="#333333" stroke-width="2" stroke-linecap="round" stroke-linejoin="round"/>
<path d="M2 11.5C2 9.567 3.567 8 5.5 8C6.15983 8 6.77702 8.18259 7.30379 8.5" stroke="#333333" stroke-width="2" stroke-linecap="round" stroke-linejoin="round"/>
</svg>
