<svg width="24" height="24" viewBox="0 0 24 24" fill="none" xmlns="http://www.w3.org/2000/svg">
<path d="M12 9H11M16.5 18V17.1056C16.5 16.7107 16.3831 16.3247 16.1641 15.9962L14.2996 13.1994C13.8221 12.4831 13.8565 11.5417 14.385 10.8621L16.5787 8.04167C16.8518 7.6906 17 7.25854 17 6.81379V5.70711C17 5.25435 16.8201 4.82015 16.5 4.5C16.1799 4.17986 15.7456 4 15.2929 4L7.70711 4C7.25435 4 6.82014 4.17986 6.5 4.5C6.17986 4.82014 6 5.25435 6 5.70711L6 6.81378C6 7.25854 6.14824 7.6906 6.4213 8.04167L8.61499 10.8621C9.14351 11.5417 9.17791 12.4831 8.70039 13.1994L6.8359 15.9962C6.61687 16.3247 6.5 16.7107 6.5 17.1056L6.5 18C6.5 19.1046 7.39543 20 8.5 20H14.5C15.6046 20 16.5 19.1046 16.5 18Z" stroke="#333333" stroke-width="2" stroke-linecap="round" stroke-linejoin="round"/>
</svg>
