<svg width="24" height="24" viewBox="0 0 24 24" fill="none" xmlns="http://www.w3.org/2000/svg">
<path d="M20 8.04946C20 9.15403 19.1046 10 18 10C16.8954 10 16 9.10457 16 8C16 6.89543 16.8954 6 18 6M9.71111 4.5C7.70502 5.22148 6.04049 6.61991 5.03573 8C4.37536 8.90706 4 9.80619 4 10.5C4 12.7091 7.80558 12.5 12.5 12.5C17.1944 12.5 21 12.7091 21 10.5C21 8.29086 17.1944 4 12.5 4C11.5231 4 10.5847 4.18581 9.71111 4.5ZM9.71111 4.5L10 6C10 7.10457 8.88071 8 7.5 8C6.18928 8.00478 5.801 7.87667 5.5 7.5M10 12.5H15L15.5659 17.527C15.7964 19.3711 14.3585 21 12.5 21C10.6415 21 9.20361 19.3711 9.43412 17.527L10 12.5Z" stroke="#333333" stroke-width="2" stroke-linecap="round" stroke-linejoin="round"/>
</svg>
