<svg width="24" height="24" viewBox="0 0 24 24" fill="none" xmlns="http://www.w3.org/2000/svg">
<path d="M11 22H13M19 12C19 15.866 15.866 19 12 19M19 12C19 8.13401 15.866 5 12 5M19 12H22M12 19C8.13401 19 5 15.866 5 12M12 19V22M5 12C5 8.13401 8.13401 5 12 5M5 12H2M12 5V2M11 2H13M22 13V11M17 16.899L19 19M18.1283 19.8567L19.8567 18.1282M16.899 7L19 5M19.8566 5.8717L18.1281 4.14322M2 13L2 11M7.05417 7.04634L5.00749 5.00746M4.14325 5.8717L5.87173 4.14322M6.98259 16.8812L4.91758 18.9025M5.87177 19.8567L4.14329 18.1282" stroke="#333333" stroke-width="2" stroke-linecap="round" stroke-linejoin="round"/>
</svg>
