<svg width="24" height="24" viewBox="0 0 24 24" fill="none" xmlns="http://www.w3.org/2000/svg">
<path d="M18.0968 7.6129C16.381 5.99304 14.9814 5 12.4355 5C9.88958 5 7.61905 5.55755 5.90323 7.17742" stroke="#333333" stroke-width="2" stroke-linecap="round" stroke-linejoin="round"/>
<path d="M18.0968 14.5807C18.0968 11.2135 15.3672 8.48389 12 8.48389C8.63285 8.48389 5.90323 11.2135 5.90323 14.5807C5.90323 16.0731 6.43947 17.4403 7.32977 18.5" stroke="#333333" stroke-width="2" stroke-linecap="round" stroke-linejoin="round"/>
<path d="M10.6936 18.3111C9.90381 17.6815 9.3871 16.6355 9.3871 15.4516C9.3871 13.5276 10.7519 11.9678 12.4355 11.9678C13.7148 11.9678 14.8101 12.8684 15.2623 14.1452" stroke="#333333" stroke-width="2" stroke-linecap="round" stroke-linejoin="round"/>
<path d="M12.871 15.4517C12.871 16.3226 13.3936 18.1517 15.4839 18.5" stroke="#333333" stroke-width="2" stroke-linecap="round" stroke-linejoin="round"/>
</svg>
