<svg width="24" height="24" viewBox="0 0 24 24" fill="none" xmlns="http://www.w3.org/2000/svg">
<path d="M13.9204 15.127L16.6465 13.5411C17.1263 13.3319 18.9042 14.1664 19.3651 14.4175L21.2279 15.4327C21.7614 15.7234 21.9833 16.3764 21.7373 16.9317L20.4799 19.77C19.8923 21.0964 18.0169 20.7114 16.6308 20.2834C15.0133 19.7839 13.4569 19.1536 12 18.3989M9.37701 10.3607L10.2857 8.54342C10.4484 8.15591 9.57753 6.17005 8.96968 4.93854C8.6749 4.3413 8.06883 4 7.4028 4L3.92489 4C2.73571 4 1.83116 5.0678 2.02666 6.2408L2.10753 6.72602C2.74321 9.50623 4.14092 11.9439 6.06808 14" stroke="#333333" stroke-width="2" stroke-linecap="round" stroke-linejoin="round"/>
<line x1="20.2534" y1="4.66086" x2="3.16084" y2="21.7534" stroke="#333333" stroke-width="2" stroke-linecap="round"/>
</svg>
