<svg width="24" height="24" viewBox="0 0 24 24" fill="none" xmlns="http://www.w3.org/2000/svg">
<path d="M20.4799 19.77L21.7373 16.9317C21.9833 16.3764 21.7614 15.7234 21.2279 15.4327L19.3651 14.4175C18.9042 14.1664 17.1263 13.3319 16.6465 13.5411L13.9204 15.127L13.3736 14.7875C12.1974 14.0466 10.6879 13.0862 9.60153 12.0241C9.15724 11.5898 9.09915 10.9165 9.37701 10.3607L10.2857 8.54342C10.4484 8.15591 9.57753 6.17005 8.96968 4.93854C8.6749 4.3413 8.06883 4 7.4028 4L3.92489 4C2.73571 4 1.83116 5.0678 2.02666 6.2408L2.10753 6.72602C3.6327 13.3965 9.54455 18.0951 16.6308 20.2834C18.0169 20.7114 19.8923 21.0964 20.4799 19.77Z" stroke="#333333" stroke-width="2" stroke-linecap="round" stroke-linejoin="round"/>
<path d="M17.7194 9.75747C18.1945 8.68553 18.0727 7.42417 17.2958 6.50845C16.519 5.59273 15.2943 5.26697 14.1593 5.56101" stroke="#333333" stroke-width="2" stroke-linecap="round" stroke-linejoin="round"/>
<path d="M14.5233 2.58351C16.243 2.4283 18.0088 3.08409 19.2107 4.50081C20.4126 5.91753 20.7719 7.76665 20.3385 9.43803" stroke="#333333" stroke-width="2" stroke-linecap="round" stroke-linejoin="round"/>
</svg>
